<svg xmlns="http://www.w3.org/2000/svg" viewBox="0 0 722.31 129.89"><defs><style>.cls-1{fill:#38bdf8;}</style></defs><g id="Layer_2" data-name="Layer 2"><g id="Layer_1-2" data-name="Layer 1"><path class="cls-1" d="M19.39,121.58c-26.27-21.52-25.84-72.7,1.28-92.84,11.73-8.91,33.42-9.53,43.46.79,10.55,9.11,11.32,33.12-3.76,36.64C64.22,42.64,41.4,50,42.8,70.52,41,90.46,60.48,106.2,73.51,86.52c8.86-11.69,4.76-46.86,5.63-61.63h42.47V127.61H84.87c-8.14,1-6-6.5-2.77-10.47,7.81-11.11,13-19.42,12.84-33.58H90.2C89,118.86,50,143.55,19.39,121.58Z"/><path class="cls-1" d="M172.77,129.19l-40.1-104.3H174c9.92,32,19.86,46.75,17.58,72.3h5.92c-2.28-25.57,7.65-40.25,17.58-72.3h41.88l-40.69,104.3Z"/><path class="cls-1" d="M278.55,121.58c-26.27-21.52-25.84-72.7,1.28-92.84,11.73-8.91,33.43-9.53,43.46.79,10.56,9.11,11.32,33.12-3.75,36.64,3.84-23.53-19-16.22-17.58,4.35-1.77,19.94,17.68,35.68,30.72,16,8.86-11.69,4.75-46.86,5.63-61.63h42.46V127.61H344c-8.14,1-6-6.5-2.76-10.47,7.8-11.11,13-19.42,12.84-33.58h-4.74C348.13,118.86,309.19,143.54,278.55,121.58Z"/><path class="cls-1" d="M417.12,50.57H396.38V24.89h20.74V0h42.47V24.89h20.74V50.57H459.59v77H417.12Z"/><path class="cls-1" d="M507.49,121.58c-26.27-21.52-25.84-72.7,1.29-92.84,11.72-8.91,33.42-9.53,43.46.79,10.55,9.11,11.31,33.12-3.76,36.64,3.84-23.53-19-16.22-17.58,4.35-1.77,20,17.69,35.68,30.72,16,8.86-11.69,4.75-46.86,5.63-61.63h42.47V127.61H573c-8.15,1-6-6.5-2.77-10.47,7.81-11.11,13-19.42,12.84-33.58h-4.74C577.07,118.86,538.13,143.55,507.49,121.58Z"/><path class="cls-1" d="M700.19,60.45c-18.31.12-24.1,8-24.3,26.07v41.09H633.42V24.89c74.75-1.5,27,.68,26.07,47h4.75c1.87-33.54,23.86-55.06,58.07-48V64A67.19,67.19,0,0,0,700.19,60.45Z"/></g></g></svg>